PathFileType	4	(X/Y/Z)	 s02c0301.trc
DataRate	CameraRate	NumFrames	NumMarkers	Units	OrigDataRate	OrigDataStartFrame	OrigNumFrames
200	200	4	51	mm	200	501	2000
Frame#	Time	racr			lacr			c7			jug			rlel			rdr			llel			ldr			s2			lic			ric			lasi			rasi			rpsi			lpsi			rgt			lgt			rth1			rth2			rth3			rth4			rlfc			rmfc			rsh1			rsh2			rsh3			rsh4			rlmal			rmmal			rcal			rtoe			rmt5			rmt1			lth1			lth2			lth4			lth3			llfc			lmfc			lsh1			lsh2			lsh3			lsh4			llmal			lmmal			lcal			ltoe			lmt5			SBIKE			LBIKE			RBIKE			
		X1	Y1	Z1	X2	Y2	Z2	X3	Y3	Z3	X4	Y4	Z4	X5	Y5	Z5	X6	Y6	Z6	X7	Y7	Z7	X8	Y8	Z8	X9	Y9	Z9	X10	Y10	Z10	X11	Y11	Z11	X12	Y12	Z12	X13	Y13	Z13	X14	Y14	Z14	X15	Y15	Z15	X16	Y16	Z16	X17	Y17	Z17	X18	Y18	Z18	X19	Y19	Z19	X20	Y20	Z20	X21	Y21	Z21	X22	Y22	Z22	X23	Y23	Z23	X24	Y24	Z24	X25	Y25	Z25	X26	Y26	Z26	X27	Y27	Z27	X28	Y28	Z28	X29	Y29	Z29	X30	Y30	Z30	X31	Y31	Z31	X32	Y32	Z32	X33	Y33	Z33	X34	Y34	Z34	X35	Y35	Z35	X36	Y36	Z36	X37	Y37	Z37	X38	Y38	Z38	X39	Y39	Z39	X40	Y40	Z40	X41	Y41	Z41	X42	Y42	Z42	X43	Y43	Z43	X44	Y44	Z44	X45	Y45	Z45	X46	Y46	Z46	X47	Y47	Z47	X48	Y48	Z48	X49	Y49	Z49	X50	Y50	Z50	X51	Y51	Z51	
501	2.5050	678.357907	1281.953919	-69.748031	742.417544	1264.970151	-406.001815	710.378194	1307.659616	-246.896187	632.203000	1187.068517	-243.261822	591.681254	1016.954323	-35.049625	727.409432	861.966551	-95.849723	628.725989	1039.527561	-558.345515	732.900559	853.357567	-501.879876	169.130904	1195.834387	-343.064959	333.340561	1152.822867	-454.354588	266.582218	1204.883366	-179.878014	359.184318	1111.076155	-417.446367	319.424835	1165.802942	-194.333675	195.031610	1248.498693	-303.020279	228.584938	1244.687975	-383.873546	230.777631	1134.271207	-138.062358	254.410091	1067.086018	-484.433885	310.184309	1084.248096	-120.658838	391.949028	1051.194204	-114.768301	445.100224	991.037533	-84.058658	412.434755	1072.271987	-138.694260	541.782549	873.238552	-106.611463	543.291556	862.177119	-220.778045	500.408861	766.048995	-102.068462	461.043397	691.657232	-132.805832	393.232560	638.759011	-135.004638	474.648261	690.123423	-169.840578	307.834652	560.124266	-148.989274	320.665632	580.100769	-229.047610	226.542849	525.774104	-195.414808	507.127407	477.869477	-180.801087	394.952101	475.749969	-125.241850	427.656929	487.813578	-232.156462	315.054068	942.469814	-495.149005	353.151941	864.147606	-489.002701	383.363076	871.097853	-469.083109	346.299785	775.699814	-492.432438	361.712168	678.593040	-468.615812	347.196739	646.796157	-369.795529	317.878806	586.604095	-497.890338	299.929201	503.236812	-486.314474	240.994510	434.609575	-495.379102	314.789396	496.464951	-448.597653	181.037249	341.487102	-488.218317	193.372119	332.887873	-409.920541	105.254481	340.582402	-449.211122	304.213100	132.944255	-434.906234	214.925329	186.209797	-503.134298	-125.970127	873.380087	-307.498656	37.456486	86.898179	-514.183912	34.047005	83.188139	-114.039746	
502	2.5100	676.626626	1280.884070	-68.543590	741.970952	1264.461670	-404.510687	709.290278	1307.219605	-245.676324	631.098199	1186.671899	-242.246016	588.960312	1015.780188	-36.559294	726.824219	862.872959	-96.785345	628.392058	1039.508382	-557.672857	732.659560	853.114959	-501.732227	168.421679	1195.987163	-343.394510	332.276418	1153.536767	-454.551656	265.780929	1204.722115	-179.866768	358.266759	1111.893350	-418.474662	318.592235	1165.520281	-194.400779	194.376939	1248.676215	-303.010478	227.773150	1245.339812	-384.038063	230.070540	1133.726564	-138.597026	254.144360	1067.843143	-485.220974	309.615289	1083.436794	-121.215543	391.204637	1050.020735	-115.432217	444.170628	989.648549	-84.748268	411.897262	1071.007438	-139.366768	539.977675	870.924889	-107.597537	541.701450	859.884982	-221.612798	499.673979	763.236123	-102.897305	461.645953	687.932995	-133.453392	394.675448	634.211280	-135.736608	474.662698	686.334068	-170.783325	310.723369	554.230326	-150.275489	323.798453	573.949998	-230.274717	230.198848	518.116989	-196.791503	511.696614	475.100248	-180.161204	398.980232	471.271084	-125.441827	432.418391	483.878462	-232.200733	316.616399	943.685216	-495.131347	355.836533	865.955242	-488.752114	386.131984	873.429442	-469.196036	350.290348	777.419493	-491.722339	366.311993	680.386157	-468.036355	352.080410	648.614733	-369.733306	321.288274	588.678664	-497.308020	300.781259	505.534676	-485.078197	241.092263	438.346025	-495.000125	315.782126	498.719338	-447.566749	178.675163	346.367284	-488.284516	190.751476	337.370284	-409.747211	102.751844	346.335940	-449.184134	298.629770	135.953995	-434.826617	209.657442	189.677774	-502.466611	-125.951278	873.373007	-307.494176	37.429244	86.808533	-514.222225	34.033715	83.193179	-114.047582	
503	2.5150	674.946214	1279.795366	-67.319592	741.465861	1264.048967	-403.139886	708.098244	1306.865341	-244.172145	629.979037	1186.246367	-241.270736	586.266673	1015.008288	-37.931823	726.375043	863.722670	-97.634868	627.974568	1039.534487	-557.011378	732.381940	852.859397	-501.548209	168.117791	1195.656787	-343.280796	331.365597	1154.486900	-455.116666	263.688597	1203.842731	-181.388897	357.323322	1112.634661	-419.091474	317.719341	1165.095446	-194.486581	193.647837	1248.764148	-303.013013	226.748417	1245.945363	-384.095935	229.344215	1133.085497	-139.072665	253.927996	1068.491285	-486.053594	309.228663	1082.597898	-121.775490	390.610626	1048.842400	-116.147032	443.428126	988.242286	-85.519073	411.309454	1069.652808	-140.274706	538.370441	868.666402	-108.755105	540.224420	857.462074	-222.579870	499.009380	760.550787	-103.838958	461.548892	683.807914	-135.088307	396.345313	629.522496	-136.542092	475.823491	682.713267	-171.091221	313.778151	548.229803	-151.353953	326.860121	567.622083	-231.375709	233.945171	510.534664	-197.972163	516.271560	471.702875	-179.433504	403.310317	466.534140	-125.568512	437.080333	479.630853	-232.353274	318.276067	944.932905	-494.976120	358.662505	867.838754	-488.376756	389.021257	875.822015	-469.248077	354.473820	779.287151	-491.059772	371.115751	682.179059	-467.489863	357.301838	650.400769	-370.057870	324.932741	590.767989	-496.642547	302.483453	508.193495	-484.413352	241.429054	442.323419	-494.498821	317.263391	501.083873	-446.814150	176.444906	351.345242	-488.311245	188.416304	341.961661	-409.561740	100.304550	352.238088	-449.052049	293.114819	139.086018	-434.680355	205.097056	194.226689	-502.571035	-125.893718	873.391802	-307.460694	37.431923	86.843508	-514.237251	34.036685	83.204925	-114.057631	
504	2.5200	673.159424	1278.508801	-66.170445	740.902648	1263.697387	-401.750096	706.924174	1306.429602	-242.943388	628.859137	1185.791023	-240.335787	583.871848	1014.324208	-39.423807	725.950813	864.480722	-98.488100	627.560533	1039.590225	-556.378788	732.072004	852.592665	-501.336000	167.394068	1195.579686	-343.486561	330.388177	1155.334184	-455.616126	262.852890	1203.257268	-181.438579	356.297016	1113.337602	-419.737932	316.888578	1164.498408	-194.415446	192.904882	1248.740960	-302.859186	225.775326	1246.503030	-384.056323	228.696222	1132.332876	-139.625663	253.688590	1069.018991	-487.015068	309.045015	1081.969883	-122.171453	390.109900	1047.553401	-116.935679	442.749094	986.583211	-86.456283	410.944311	1068.157866	-141.138488	536.917017	866.381426	-110.017350	538.726179	855.029875	-223.752855	498.302370	757.827371	-104.875754	463.059793	680.278092	-134.821953	398.075292	624.898753	-137.203645	477.074001	678.920854	-171.299965	317.040117	542.176785	-152.276078	330.057095	561.298591	-232.349007	237.750884	503.029755	-198.944808	520.797148	467.987995	-179.252906	407.602425	461.540017	-125.831228	441.609971	475.084682	-232.468698	320.080796	946.091896	-494.715250	361.590793	869.655441	-487.923715	391.985934	878.200066	-469.086246	358.949876	780.990674	-489.914183	376.185220	684.045012	-466.805954	361.976933	653.657403	-367.393017	328.748757	592.966215	-495.776942	304.467224	510.881311	-483.712404	241.988317	446.608183	-494.049038	318.903931	503.523213	-446.035748	174.451272	356.635415	-488.242680	186.373243	346.625803	-409.380446	98.074182	358.423458	-448.971824	287.805319	142.452027	-434.566813	200.733821	199.111944	-502.679879	-125.832331	873.423965	-307.381983	37.446927	86.862043	-514.238245	34.053017	83.196274	-114.066477	
